<svg xmlns="http://www.w3.org/2000/svg" width="24" height="24" fill="none" viewBox="0 0 24 24">
  <path fill="#AB8D47" d="M10.975 17.902q-2.926 0-5.026-2.017T3.85 10.974V4.488q0-.679.481-1.161a1.58 1.58 0 0 1 1.163-.483h13.273q1.404 0 2.396.964.992.963.992 2.361 0 1.549-.957 2.729-.959 1.18-2.431 1.18h-.631v.895q-.024 2.903-2.129 4.916t-5.032 2.013M5.554 8.368h10.879V4.554H5.553zm5.418 7.825q2.227 0 3.832-1.502t1.629-3.718v-.895H5.553v.895q-.005 2.217 1.595 3.719 1.602 1.5 3.824 1.501m7.164-7.825h.614q.788 0 1.241-.679a2.67 2.67 0 0 0 .455-1.519q0-.69-.501-1.153a1.7 1.7 0 0 0-1.196-.463h-.613zM4.696 21.15a.8.8 0 0 1-.604-.247.84.84 0 0 1-.242-.611q0-.364.246-.602a.84.84 0 0 1 .606-.238H19.12q.36 0 .602.247a.84.84 0 0 1 .243.61.8.8 0 0 1-.245.602.84.84 0 0 1-.607.238z"/>
</svg>
