<svg xmlns="http://www.w3.org/2000/svg" width="24" height="24" fill="none" viewBox="0 0 24 24">
  <path fill="#AB8D47" d="M12.006 22.15q-1.85 0-3.565-.633a10.3 10.3 0 0 1-3.11-1.818.88.88 0 0 1-.354-.656.82.82 0 0 1 .241-.668.8.8 0 0 1 .61-.242q.353.013.65.256.39.317.827.588.437.272.88.496v-3.431H5.547q-.68 0-1.19-.508-.507-.508-.507-1.19V7.989q0-1.71 1.216-2.927Q6.284 3.845 8 3.844h3.262q.36 0 .609.25a.83.83 0 0 1 .249.608V8.81h6.332q.684 0 1.194.508.51.507.51 1.189v3.839q0 .68-.51 1.189-.51.507-1.194.508h-2.636v3.431q.462-.23.899-.514t.824-.622a.95.95 0 0 1 .63-.238.83.83 0 0 1 .618.256q.262.27.24.645a.8.8 0 0 1-.313.605 10.8 10.8 0 0 1-3.13 1.874 9.8 9.8 0 0 1-3.578.67m-.001-1.704q.528 0 1.06-.066.53-.066 1.048-.229v-4.11H9.888v4.11a6 6 0 0 0 1.052.23q.537.065 1.065.065m-6.451-6.108h12.892v-3.826H10.41V5.554H8q-1.026 0-1.736.707a2.35 2.35 0 0 0-.71 1.727z"/>
</svg>
